HIERARCHY
ROOT Hips
{
	OFFSET 0.000000 0.000000 0.000000
	CHANNELS 6 Xposition Yposition Zposition Zrotation Yrotation Xrotation
	JOINT Spine
	{
		OFFSET 3.947960 -0.891740 0.000000
		CHANNELS 3 Zrotation Yrotation Xrotation
		JOINT Spine1
		{
			OFFSET 4.082800 -0.719910 0.000000
			CHANNELS 3 Zrotation Yrotation Xrotation
			JOINT Spine2
			{
				OFFSET 4.130011 -0.361330 0.000000
				CHANNELS 3 Zrotation Yrotation Xrotation
				JOINT Spine3
				{
					OFFSET 4.145781 0.000000 0.000000
					CHANNELS 3 Zrotation Yrotation Xrotation
					JOINT Neck
					{
						OFFSET 5.330290 0.533030 0.000000
						CHANNELS 3 Zrotation Yrotation Xrotation
						JOINT Neck1
						{
							OFFSET 1.811001 0.158440 0.000000
							CHANNELS 3 Zrotation Yrotation Xrotation
							JOINT Head
							{
								OFFSET 1.790300 0.315680 0.000000
								CHANNELS 3 Zrotation Yrotation Xrotation
								End Site
								{
									OFFSET 3.829800 0.000000 0.000000
								}
							}
						}
					}
					JOINT RightShoulder
					{
						OFFSET 3.807350 2.526960 0.000000
						CHANNELS 3 Zrotation Yrotation Xrotation
						JOINT RightArm
						{
							OFFSET 0.000000 0.000000 -7.723430
							CHANNELS 3 Zrotation Yrotation Xrotation
							JOINT RightForeArm
							{
								OFFSET 0.000000 0.000000 -11.009809
								CHANNELS 3 Zrotation Yrotation Xrotation
								JOINT RightHand
								{
									OFFSET 0.000002 0.000000 -9.515890
									CHANNELS 3 Zrotation Yrotation Xrotation
									End Site
									{
										OFFSET -0.065611 0.000000 -1.267609
									}
								}
							}
						}
					}
					JOINT LeftShoulder
					{
						OFFSET 3.807350 2.526960 0.000000
						CHANNELS 3 Zrotation Yrotation Xrotation
						JOINT LeftArm
						{
							OFFSET 0.000000 0.000000 7.723430
							CHANNELS 3 Zrotation Yrotation Xrotation
							JOINT LeftForeArm
							{
								OFFSET 0.000000 0.000000 11.009808
								CHANNELS 3 Zrotation Yrotation Xrotation
								JOINT LeftHand
								{
									OFFSET -0.000002 0.000000 9.515890
									CHANNELS 3 Zrotation Yrotation Xrotation
									End Site
									{
										OFFSET -0.065611 0.000000 1.257635
									}
								}
							}
						}
					}
				}
			}
		}
	}
	JOINT RightUpLeg
	{
		OFFSET 0.000000 0.000000 -3.214260
		CHANNELS 3 Zrotation Yrotation Xrotation
		JOINT RightLeg
		{
			OFFSET -15.639260 0.000001 -0.000001
			CHANNELS 3 Zrotation Yrotation Xrotation
			JOINT RightFoot
			{
				OFFSET -16.449070 0.000001 -0.000001
				CHANNELS 3 Zrotation Yrotation Xrotation
				JOINT RightToeBase
				{
					OFFSET -1.440762 5.642469 0.000000
					CHANNELS 3 Zrotation Yrotation Xrotation
					End Site
					{
						OFFSET 0.000000 3.133922 0.000000
					}
				}
			}
		}
	}
	JOINT LeftUpLeg
	{
		OFFSET -0.000000 0.000000 3.214260
		CHANNELS 3 Zrotation Yrotation Xrotation
		JOINT LeftLeg
		{
			OFFSET -15.639260 0.000001 -0.000001
			CHANNELS 3 Zrotation Yrotation Xrotation
			JOINT LeftFoot
			{
				OFFSET -16.449070 0.000001 -0.000001
				CHANNELS 3 Zrotation Yrotation Xrotation
				JOINT LeftToeBase
				{
					OFFSET -1.440762 5.642469 0.000000
					CHANNELS 3 Zrotation Yrotation Xrotation
					End Site
					{
						OFFSET 0.000000 3.098962 0.000000
					}
				}
			}
		}
	}
}
MOTION
Frames: 13
Frame Time: 0.008333
0.000000 0.000000 0.000000 -80.417035 -178.669074 -3.764924 10.409841 -1.174583 -0.311667 -0.031632 -0.624191 0.296720 -1.835453 -0.915976 2.278603 0.063593 0.070597 0.560703 5.808585 0.291947 -1.853832 -3.127259 2.264366 -2.110963 -1.051665 1.605671 -0.344737 -4.149824 12.184931 -18.970357 66.281221 43.877490 59.796025 7.255409 -3.683243 26.775422 -0.000005 -9.380769 -5.697749 -2.628417 -9.419248 15.668922 64.925094 -51.237904 -60.883459 20.857620 10.013363 -24.529882 -0.000027 -2.292706 6.292096 18.277924 -1.355470 0.378913 0.653405 0.000000 -0.000000 -10.322137 -5.320466 -9.401863 6.927653 -0.000000 -0.000001 18.271530 -0.212428 1.438715 1.016210 0.000000 0.000000 -10.246814 -1.240538 3.754100 12.972169 0.000001 -0.000004
-0.003001 0.000008 0.003000 -80.411086 -178.669170 -3.766718 10.420208 -1.171681 -0.320668 -0.035483 -0.625091 0.300720 -1.836173 -0.916980 2.271103 0.062467 0.067897 0.560203 5.803365 0.309837 -1.859638 -3.125088 2.235307 -2.095708 -1.053054 1.606072 -0.344339 -4.151912 12.184041 -18.980805 66.273312 43.873618 59.759019 7.113281 -3.605835 26.747330 0.000020 -9.386492 -5.613100 -2.628534 -9.409504 15.684927 64.879229 -51.286057 -60.818238 20.991306 10.047627 -24.451775 -0.000004 -2.536020 6.193424 18.282765 -1.350874 0.366410 0.647503 0.000000 -0.000000 -10.318765 -5.313568 -9.388295 6.917754 0.000000 -0.000001 18.293600 -0.209646 1.277915 0.976310 0.000000 0.000000 -10.233186 -1.225339 3.915715 12.974366 0.000001 -0.000004
-0.006100 0.000103 0.006000 -80.405397 -178.668883 -3.770020 10.441836 -1.169381 -0.327470 -0.035396 -0.626092 0.301520 -1.852641 -0.917973 2.279205 0.050793 0.070097 0.563004 5.808334 0.291245 -1.867433 -3.127554 2.248688 -2.102834 -1.055568 1.596873 -0.343137 -4.157618 12.178809 -19.012467 66.271003 43.865121 59.735735 6.960015 -3.516053 26.674223 -0.000027 -9.360360 -5.338190 -2.627561 -9.400406 15.693753 64.900983 -51.256424 -60.789715 20.993686 10.025786 -24.402630 -0.000032 -2.581401 6.184841 18.283330 -1.347175 0.360107 0.646004 0.000000 -0.000000 -10.320215 -5.316296 -9.377791 6.924453 -0.000000 -0.000000 18.291279 -0.206149 1.247213 0.982207 0.000000 -0.000000 -10.230497 -1.222697 3.947920 12.963768 0.000001 -0.000003
-0.009300 0.000305 0.009200 -80.398546 -178.667982 -3.770030 10.455141 -1.168579 -0.337774 -0.039101 -0.627492 0.301519 -1.853901 -0.917475 2.277904 0.045901 0.071897 0.563103 5.808208 0.285749 -1.867233 -3.128384 2.242493 -2.101724 -1.058696 1.589872 -0.342135 -4.158639 12.173970 -19.023595 66.272950 43.853093 59.706488 6.836208 -3.447731 26.640326 0.000038 -9.386415 -5.213299 -2.628318 -9.394302 15.707825 64.876203 -51.290571 -60.737204 21.027315 10.016161 -24.344381 -0.000028 -2.595589 6.209936 18.284614 -1.342576 0.349103 0.647202 0.000000 0.000000 -10.318946 -5.328330 -9.365119 6.918755 0.000000 0.000002 18.287792 -0.201050 1.247213 0.992011 -0.000000 -0.000000 -10.232379 -1.221102 3.947516 12.962870 0.000001 -0.000003
-0.012900 0.000298 0.012400 -80.395821 -178.666479 -3.770928 10.460091 -1.167378 -0.345474 -0.042002 -0.628692 0.301021 -1.852509 -0.916578 2.274403 0.048891 0.070297 0.562204 5.803367 0.278353 -1.864431 -3.130825 2.234100 -2.100511 -1.061886 1.588173 -0.342135 -4.159900 12.172466 -19.031200 66.270949 43.848824 59.684385 6.722629 -3.384477 26.603978 -0.000034 -9.444199 -5.151208 -2.630248 -9.390899 15.723731 64.831418 -51.342703 -60.673130 21.082308 10.016056 -24.282615 -0.000040 -2.621209 6.256113 18.283931 -1.338476 0.349602 0.642406 -0.000000 0.000000 -10.316003 -5.332598 -9.363476 6.927554 0.000000 -0.000002 18.279012 -0.195851 1.245914 1.002912 0.000000 -0.000000 -10.236416 -1.226190 3.946924 12.961173 0.000001 -0.000003
-0.015499 0.000507 0.015800 -80.384223 -178.667982 -3.770423 10.470444 -1.162377 -0.354375 -0.043505 -0.629692 0.300619 -1.848517 -0.916878 2.274103 0.052471 0.068797 0.561604 5.795909 0.271558 -1.859631 -3.134773 2.226509 -2.098399 -1.065519 1.581273 -0.341133 -4.160834 12.167897 -19.041831 66.266277 43.854452 59.656484 6.680979 -3.358499 26.571326 0.000011 -9.482730 -5.145910 -2.631654 -9.385376 15.740752 64.791530 -51.395766 -60.619875 21.142791 10.013594 -24.209997 -0.000042 -2.623244 6.266230 18.293680 -1.331177 0.349402 0.639007 -0.000000 -0.000000 -10.310283 -5.324078 -9.365759 6.920354 0.000000 -0.000000 18.284053 -0.189154 1.246712 1.008611 -0.000000 -0.000000 -10.240416 -1.226887 3.949326 12.968367 0.000001 -0.000004
-0.019000 0.000408 0.019200 -80.382345 -178.671069 -3.769820 10.473170 -1.156177 -0.357376 -0.045100 -0.629692 0.300120 -1.845459 -0.916180 2.272203 0.054252 0.066997 0.560703 5.788364 0.264462 -1.854729 -3.138886 2.218317 -2.096185 -1.069263 1.575373 -0.340432 -4.161231 12.161136 -19.052980 66.252541 43.877849 59.625229 6.677404 -3.350207 26.527123 -0.000049 -9.491051 -5.135689 -2.633367 -9.384475 15.751722 64.743384 -51.457177 -60.554347 21.208647 10.012232 -24.134088 -0.000021 -2.632221 6.259668 18.289003 -1.322176 0.350800 0.640204 0.000000 -0.000000 -10.309222 -5.320551 -9.364094 6.926155 0.000001 0.000002 18.277629 -0.179257 1.228913 1.013810 0.000000 -0.000000 -10.241683 -1.233549 3.963540 12.951672 0.000001 -0.000004
-0.022200 0.000507 0.022300 -80.375870 -178.668979 -3.771526 10.478891 -1.155378 -0.358775 -0.045191 -0.629492 0.299621 -1.842582 -0.914882 2.270702 0.055622 0.064198 0.560703 5.784018 0.256567 -1.853028 -3.142758 2.210231 -2.090172 -1.074103 1.569873 -0.339431 -4.163026 12.159775 -19.062933 66.266932 43.872429 59.616350 6.508928 -3.260173 26.494382 0.000030 -9.599675 -5.139564 -2.635022 -9.384885 15.760938 64.709670 -51.508144 -60.494904 21.342456 10.024441 -24.012435 -0.000007 -2.554599 6.113234 18.289244 -1.319076 0.354102 0.642507 -0.000000 -0.000000 -10.308292 -5.328359 -9.369840 6.931354 0.000000 0.000002 18.276034 -0.176759 1.209211 1.019112 0.000000 0.000000 -10.242619 -1.219253 3.983525 12.952569 0.000001 -0.000003
-0.025199 0.000603 0.025600 -80.370119 -178.670782 -3.766121 10.484288 -1.149177 -0.365675 -0.046387 -0.629692 0.299220 -1.839452 -0.914782 2.269003 0.056819 0.063498 0.560603 5.777033 0.250470 -1.851828 -3.146548 2.203645 -2.083156 -1.075402 1.560774 -0.337729 -4.166710 12.166484 -19.068884 66.316369 43.837425 59.623166 6.096199 -3.054225 26.513947 0.000042 -9.825505 -5.244748 -2.636143 -9.382477 15.771038 64.686099 -51.560275 -60.446457 21.395573 10.015847 -23.936243 0.000029 -2.514460 6.105533 18.291115 -1.309874 0.362603 0.641903 -0.000000 0.000000 -10.304140 -5.335994 -9.380304 6.938452 -0.000000 -0.000000 18.271975 -0.167361 1.197011 1.027112 0.000000 -0.000000 -10.246336 -1.220443 3.989627 12.945675 0.000001 -0.000004
-0.027900 0.000809 0.028500 -80.360126 -178.669074 -3.761126 10.490048 -1.143676 -0.370475 -0.045987 -0.630792 0.298622 -1.834569 -0.916884 2.264902 0.059759 0.056898 0.558903 5.770551 0.246971 -1.848628 -3.149711 2.197159 -2.075440 -1.078961 1.557274 -0.336929 -4.168312 12.170292 -19.070329 66.315919 43.864154 59.594609 5.943006 -2.977593 26.519714 0.000039 -9.907242 -5.342198 -2.636622 -9.376018 15.783543 64.655035 -51.616146 -60.399376 21.435253 10.004198 -23.868564 -0.000006 -2.485713 6.128324 18.298205 -1.304977 0.350799 0.640006 -0.000000 -0.000000 -10.300845 -5.341350 -9.372051 6.936453 0.000000 -0.000000 18.272105 -0.162264 1.187410 1.036412 0.000000 -0.000000 -10.250303 -1.220136 3.993826 12.951070 0.000001 -0.000003
-0.029800 0.000805 0.032200 -80.367195 -178.668801 -3.778331 10.467250 -1.141878 -0.351470 -0.041685 -0.630893 0.298122 -1.828450 -0.917986 2.260901 0.066234 0.054498 0.557903 5.760458 0.241475 -1.843026 -3.151448 2.190880 -2.063923 -1.074478 1.551275 -0.335226 -4.166999 12.163094 -19.074833 66.298153 43.912621 59.561319 5.925410 -2.963527 26.479803 0.000030 -9.935418 -5.248530 -2.637545 -9.373064 15.793680 64.616110 -51.683300 -60.333117 21.396987 9.980628 -23.860719 -0.000024 -2.514251 6.213034 18.285984 -1.305071 0.382306 0.640903 -0.000000 0.000000 -10.302679 -5.331877 -9.384861 6.938254 -0.000000 -0.000001 18.263728 -0.161360 1.221510 1.037310 -0.000000 -0.000000 -10.250704 -1.223151 3.979327 12.951575 0.000001 -0.000004
-0.033001 0.001007 0.035200 -80.366717 -178.666697 -3.780223 10.460731 -1.142179 -0.345271 -0.037361 -0.629092 0.296919 -1.823018 -0.915889 2.257900 0.064672 0.048898 0.556903 5.756600 0.237678 -1.837125 -3.155865 2.175197 -2.058197 -1.076517 1.554474 -0.335926 -4.167162 12.159093 -19.081395 66.282908 43.962311 59.511083 5.956929 -2.976606 26.458215 -0.000019 -9.934021 -5.177635 -2.639545 -9.372726 15.805828 64.582246 -51.743802 -60.274753 21.408921 9.964147 -23.813075 0.000017 -2.524228 6.226000 18.277257 -1.302171 0.384608 0.648403 -0.000000 0.000000 -10.306621 -5.336837 -9.383227 6.955551 -0.000001 -0.000001 18.256932 -0.157762 1.213211 1.040911 0.000000 -0.000000 -10.255403 -1.233813 3.986746 12.960776 0.000001 -0.000004
-0.036700 0.001305 0.038200 -80.360563 -178.664990 -3.773342 10.472033 -1.139778 -0.350970 -0.040563 -0.630192 0.296820 -1.824600 -0.915389 2.258001 0.063634 0.045798 0.556103 5.751487 0.232381 -1.831925 -3.155551 2.172904 -2.054691 -1.075475 1.551574 -0.335025 -4.169206 12.160795 -19.087312 66.283578 43.984714 59.456926 5.930923 -2.965045 26.470089 0.000006 -9.972768 -5.171755 -2.642314 -9.373788 15.820082 64.561031 -51.794407 -60.228417 21.433368 9.948716 -23.754116 0.000004 -2.493716 6.204235 18.274514 -1.295974 0.375304 0.654306 -0.000000 -0.000000 -10.301326 -5.346929 -9.381478 6.948552 0.000000 0.000000 18.251165 -0.152764 1.202410 1.050609 0.000000 0.000000 -10.251458 -1.226326 3.990235 12.945971 0.000001 -0.000004
